<svg width="700" height="700" viewBox="0 0 700 700" xmlns="http://www.w3.org/2000/svg">
<path fill-rule="evenodd" clip-rule="evenodd" d="M350 700C543.3 700 700 543.3 700 350C700 156.7 543.3 0 350 0C156.7 0 0 156.7 0 350C0 543.3 156.7 700 350 700ZM190 281.3C190 192.677 261.766 121 350.5 121C439.234 121 511 192.677 511 281.3C511 401.525 350.5 579 350.5 579C350.5 579 190 401.525 190 281.3ZM293.179 281.3C293.179 312.902 318.859 338.55 350.5 338.55C382.141 338.55 407.821 312.902 407.821 281.3C407.821 249.698 382.141 224.05 350.5 224.05C318.859 224.05 293.179 249.698 293.179 281.3Z"/>
</svg>
