<svg width="700" height="700" viewBox="0 0 700 700" xmlns="http://www.w3.org/2000/svg">
<path fill-rule="evenodd" clip-rule="evenodd" d="M350 700C543.3 700 700 543.3 700 350C700 156.7 543.3 0 350 0C156.7 0 0 156.7 0 350C0 543.3 156.7 700 350 700ZM495.769 184.904C472.054 169.027 444.164 160.535 415.625 160.5C377.287 160.5 340.521 175.729 313.412 202.838C286.304 229.946 271.074 266.713 271.074 305.05C271.109 333.59 279.602 361.479 295.479 385.194C311.356 408.91 333.906 427.388 360.28 438.293C386.654 449.199 415.669 452.043 443.659 446.467C471.648 440.891 497.357 427.144 517.538 406.963C537.719 386.783 551.465 361.074 557.042 333.084C562.618 305.094 559.774 276.08 548.868 249.706C537.962 223.332 519.485 200.782 495.769 184.904ZM227.5 545.5H157.5V160.5H227.5V545.5Z"/>
</svg>
