<svg width="170" height="170" viewBox="0 0 170 170" fill="none" xmlns="http://www.w3.org/2000/svg">
<path d="M60.6981 111.113C60.6981 111.113 28.8568 47.4333 106.138 22.2226L84.2448 -3.05176e-05L0 84.5799L84.2448 169.82L91.0475 163.191C91.0475 163.191 65.6728 155.229 60.6981 111.113Z" fill="#36AB9C"/>
<path d="M131.014 47.2639C148.786 32.2839 143.953 8.62387 143.953 8.62387C131.678 33.9985 130.434 40.8599 119.406 44.2799C59.5382 62.8545 65.1742 101.496 65.1742 101.496C67.9995 81.5199 134.221 59.7052 134.221 59.7052C119.158 86.9026 109.205 90.9919 109.205 90.9919C48.1769 117.856 93.6995 159.533 93.6995 159.533L169.325 84.9105L131.014 47.2639Z" fill="white"/>
</svg>
