<svg width="806" height="170" viewBox="0 0 806 170" fill="none" xmlns="http://www.w3.org/2000/svg">
<path d="M60.6981 111.113C60.6981 111.113 28.8568 47.4333 106.138 22.2226L84.2448 -3.0568e-05L0 84.5799L84.2448 169.82L91.0475 163.191C91.0475 163.191 65.6728 155.229 60.6981 111.113" fill="#36AB9C"/>
<path d="M131.014 47.2639C148.786 32.2839 143.953 8.62387 143.953 8.62387C131.678 33.9985 130.434 40.8599 119.406 44.2799C59.5382 62.8545 65.1742 101.496 65.1742 101.496C67.9995 81.5199 134.221 59.7052 134.221 59.7052C119.158 86.9026 109.205 90.9919 109.205 90.9919C48.1769 117.856 93.6995 159.533 93.6995 159.533L169.325 84.9105L131.014 47.2639" fill="white"/>
<path d="M202.575 5.11197H247.454V12.268H210.815V38.548H246.059V45.7053H210.815V88.9973H202.575V5.11197Z" fill="#36AB9C"/>
<path d="M274.334 42.772H282.573C296.646 42.772 303.238 39.7213 303.238 27.756C303.238 15.672 297.027 11.8 282.573 11.8H274.334V42.772ZM311.098 88.9973L279.278 48.9906H274.334V88.9973H266.093V5.11197H282.701C302.351 5.11197 312.114 12.62 312.114 27.9893C312.114 41.1293 303.111 48.9906 288.533 48.9906L321.114 88.9973H311.098Z" fill="#36AB9C"/>
<path d="M375.378 54.0346L359.911 17.548L343.811 54.0346H375.378ZM360.418 1.82798L398.578 88.9973H389.578L378.041 60.6053H341.022L328.978 88.9973H320.61L360.418 1.82798" fill="#36AB9C"/>
<path d="M418.231 24.9386L411.385 88.9973H402.891L415.189 1.59193L449.926 76.2079L485.929 1.59193L497.593 88.9973H489.099L482.381 24.9386L450.051 92.2812L418.231 24.9386" fill="#36AB9C"/>
<path d="M514.713 5.11197H559.593V12.268H522.954V38.548H559.593V45.7053H522.954V81.84H559.593V88.9973H514.713V5.11197Z" fill="#36AB9C"/>
<path d="M579.751 5.11197H587.991V81.84H619.053V88.9973H579.751V5.11197Z" fill="#36AB9C"/>
<path d="M632.113 5.11197H676.993V12.268H640.354V38.548H676.993V45.7053H640.354V81.84H676.993V88.9973H632.113V5.11197Z" fill="#36AB9C"/>
<path d="M697.278 71.3985C699.814 79.7279 706.913 84.4212 715.787 84.4212C727.198 84.4212 734.042 77.9692 734.042 66.7052C734.042 56.3812 727.451 52.5092 716.802 47.3479C702.475 40.4252 694.107 35.0292 694.107 23.2972C694.107 11.4479 703.615 3.11721 717.562 3.11721C726.69 3.11721 733.41 6.75452 737.593 13.7932L731.254 17.3132C728.718 12.5038 723.647 9.92255 717.054 9.92255C708.053 9.92255 702.475 15.2012 702.475 23.4145C702.475 33.6212 710.715 35.9679 722.506 41.9505C735.818 48.6385 741.903 54.0346 741.903 66.7052C741.903 81.7226 731.761 91.2252 715.407 91.2252C703.489 91.2252 694.995 85.7118 690.177 74.9185L697.278 71.3985" fill="#36AB9C"/>
<path d="M760.414 71.3985C762.949 79.7279 770.047 84.4212 778.923 84.4212C790.333 84.4212 797.179 77.9692 797.179 66.7052C797.179 56.3812 790.587 52.5092 779.937 47.3479C765.61 40.4252 757.243 35.0292 757.243 23.2972C757.243 11.4479 766.753 3.11721 780.698 3.11721C789.826 3.11721 796.545 6.75452 800.729 13.7932L794.389 17.3132C791.854 12.5038 786.783 9.92255 780.19 9.92255C771.189 9.92255 765.61 15.2012 765.61 23.4145C765.61 33.6212 773.853 35.9679 785.643 41.9505C798.954 48.6385 805.038 54.0346 805.038 66.7052C805.038 81.7226 794.897 91.2252 778.542 91.2252C766.626 91.2252 758.133 85.7118 753.314 74.9185L760.414 71.3985" fill="#36AB9C"/>
<path d="M204.685 122.741L200.686 157.037H195.728L202.908 110.243L223.19 150.193L244.213 110.243L251.022 157.037H246.064L242.141 122.741L223.264 158.797L204.685 122.741Z" fill="white"/>
<path d="M282.337 112.127H308.541V115.959H287.149V130.029H308.541V133.861H287.149V153.205H308.541V157.037H282.337V112.127" fill="white"/>
<path d="M350.734 153.523C351.698 153.523 352.659 153.523 353.549 153.523C360.21 153.523 365.393 153.396 369.39 150.945C374.423 147.868 377.385 142.151 377.385 134.551C377.385 128.395 375.461 123.496 371.981 120.231C367.095 115.644 361.025 115.519 352.143 115.519C351.698 115.519 351.179 115.519 350.734 115.519H346.442V153.523H350.734ZM341.63 112.127H349.847C358.953 112.127 365.983 112.127 371.61 115.08C378.494 118.66 382.491 125.631 382.491 134.615C382.491 142.781 379.234 149.187 373.535 152.891C367.465 156.851 360.581 157.037 352.067 157.037C351.327 157.037 350.587 157.037 349.847 157.037H341.63V112.127" fill="white"/>
<path d="M414.546 112.127H419.358V157.037H414.546V112.127Z" fill="white"/>
<path d="M463.254 115.959H448.671V112.127H482.649V115.959H468.066V157.037H463.254V115.959Z" fill="white"/>
<path d="M536.687 138.321L527.654 118.784L518.255 138.321H536.687ZM527.951 110.369L550.23 157.037H544.975L538.241 141.837H516.626L509.594 157.037H504.706L527.951 110.369" fill="white"/>
<path d="M586.875 115.959H572.291V112.127H606.267V115.959H591.685V157.037H586.875V115.959Z" fill="white"/>
<path d="M635.582 112.127H640.395V157.037H635.582V112.127Z" fill="white"/>
<path d="M723.894 134.677C723.894 123.557 713.532 114.701 700.65 114.701C687.844 114.701 677.482 123.496 677.482 134.677C677.482 145.733 687.697 154.589 700.65 154.589C713.605 154.589 723.894 145.733 723.894 134.677ZM720.71 151.321C715.309 155.781 708.274 158.233 700.65 158.233C692.953 158.233 685.994 155.781 680.665 151.321C675.335 146.864 672.371 140.959 672.371 134.677C672.371 128.269 675.259 122.367 680.665 117.907C685.994 113.445 692.877 111.121 700.65 111.121C708.422 111.121 715.378 113.445 720.71 117.907C726.114 122.367 729.001 128.333 729.001 134.677C729.001 141.021 726.038 146.924 720.71 151.321Z" fill="white"/>
<path d="M760.982 110.243L798.437 147.807V112.127H802.954V158.359L765.499 120.733V157.037H760.982V110.243" fill="white"/>
</svg>
